<svg width="30.000000" height="35.000000" viewBox="0 0 30 35" fill="none" xmlns="http://www.w3.org/2000/svg" xmlns:xlink="http://www.w3.org/1999/xlink">
	<desc>
			Created with Pixso.
	</desc>
	<defs/>
	<rect id="iconfinder_shopping-cart_2561279 1" width="29.000000" height="35.069767" transform="translate(0.000000 -0.372101)" fill="#FFFFFF" fill-opacity="0"/>
	<path id="Vector" d="M9.66 33.23C8.33 33.23 7.25 31.92 7.25 30.31C7.25 28.69 8.33 27.39 9.66 27.39C11 27.39 12.08 28.69 12.08 30.31C12.08 31.92 11 33.23 9.66 33.23Z" stroke="#3F3F3F" stroke-opacity="1.000000" stroke-width="2.800000" stroke-linejoin="round"/>
	<path id="Vector" d="M24.16 33.23C22.83 33.23 21.75 31.92 21.75 30.31C21.75 28.69 22.83 27.39 24.16 27.39C25.5 27.39 26.58 28.69 26.58 30.31C26.58 31.92 25.5 33.23 24.16 33.23Z" stroke="#3F3F3F" stroke-opacity="1.000000" stroke-width="2.800000" stroke-linejoin="round"/>
	<path id="Vector" d="M6.85 8.39L27.79 8.39L25.76 20.65C25.65 21.32 25.34 21.93 24.9 22.36C24.46 22.79 23.91 23.02 23.34 23L10.57 23C9.98 23.01 9.41 22.75 8.96 22.29C8.52 21.82 8.23 21.17 8.15 20.46L6.31 3.63C6.24 2.92 5.95 2.28 5.51 1.81C5.07 1.34 4.51 1.09 3.92 1.08L1.2 1.08" stroke="#3F3F3F" stroke-opacity="1.000000" stroke-width="2.800000" stroke-linejoin="round" stroke-linecap="round"/>
</svg>
